<?xml version="1.0" standalone="no"?><!DOCTYPE svg PUBLIC "-//W3C//DTD SVG 1.1//EN" "http://www.w3.org/Graphics/SVG/1.1/DTD/svg11.dtd"><svg t="1703578562611" class="icon" viewBox="0 0 1024 1024" version="1.1" xmlns="http://www.w3.org/2000/svg" p-id="4221" xmlns:xlink="http://www.w3.org/1999/xlink" width="128" height="128"><path d="M567.168 512l189.184 188.352a40.064 40.064 0 0 1 0.768 55.68 37.76 37.76 0 0 1-54.4 0.832L512 566.912l-190.72 189.952a37.76 37.76 0 0 1-54.4-0.768 40.064 40.064 0 0 1 0.768-55.68L456.832 512 267.648 323.648a40.064 40.064 0 0 1-0.768-55.68 37.76 37.76 0 0 1 54.4-0.832L512 457.088l190.72-189.952a37.76 37.76 0 0 1 54.4 0.768 40.064 40.064 0 0 1-0.768 55.68L567.168 512z" p-id="4222"></path></svg>