<?xml version="1.0" standalone="no"?><!DOCTYPE svg PUBLIC "-//W3C//DTD SVG 1.1//EN" "http://www.w3.org/Graphics/SVG/1.1/DTD/svg11.dtd"><svg t="1704868360665" class="icon" viewBox="0 0 1024 1024" version="1.1" xmlns="http://www.w3.org/2000/svg" p-id="7936" xmlns:xlink="http://www.w3.org/1999/xlink" width="128" height="128"><path d="M600.2206314 984.7998978h99.43526823c0-76.59063766 29.83205337-149.82748912 84.44117799-204.43661374C837.53377636 726.93100402 908.20926016 697.01352262 983.32700093 695.75272291v-99.43379534C771.22985052 598.98487091 600.2206314 771.22985052 600.2206314 984.7998978z" p-id="7937"></path><path d="M978.9083103 410.55422752v-99.43084953C610.68409082 316.44790021 314.96322016 616.57567833 314.96322016 984.7998978h99.43526822c0-78.06353453 15.17231074-152.78653895 45.09715661-223.53861335 28.9247489-68.38365626 70.35439227-129.81818503 123.13859769-182.60091755 52.78273251-52.78273251 114.25261083-94.20795722 182.63921286-123.13417899C832.9913624 426.88423523 905.2634664 411.7973525 978.9083103 410.55422752zM861.22532266 984.7998978H978.9083103v-127.11836504C912.62795078 862.76155409 861.22532266 917.04664143 861.22532266 984.7998978z" p-id="7938"></path><path d="M41.66131287 984.7998978h99.43526824c0-114.88595647 22.39834283-225.47399987 66.57493886-329.91711747 42.6904431-100.93025856 103.82450092-191.5914801 181.70686916-269.4738483 77.8823682-77.8823682 168.30498045-139.01495313 269.235239-181.70392334C761.54113485 160.16764989 871.38683821 137.83264161 983.32700093 137.19193149V37.7272053c-519.9325979 2.67919942-941.66568806 425.66719773-941.66568806 947.0726925z" p-id="7939"></path></svg>