<?xml version="1.0" standalone="no"?><!DOCTYPE svg PUBLIC "-//W3C//DTD SVG 1.1//EN" "http://www.w3.org/Graphics/SVG/1.1/DTD/svg11.dtd"><svg t="1704426380547" class="icon" viewBox="0 0 1024 1024" version="1.1" xmlns="http://www.w3.org/2000/svg" p-id="62482" xmlns:xlink="http://www.w3.org/1999/xlink" width="128" height="128"><path d="M544 480 544 0 512 0C229.696 0 0 229.696 0 512s229.696 512 512 512 512-229.696 512-512L1024 480 544 480zM512 959.936c-247.04 0-447.936-200.96-447.936-447.936 0-236.224 183.808-430.4 415.936-446.848l0 175.808C343.808 257.024 237.696 371.52 237.696 512c0 151.488 122.816 274.304 274.304 274.304 140.48 0 254.976-106.048 271.04-242.24l175.808 0C942.336 776.192 748.224 959.936 512 959.936z" p-id="62483"></path></svg>