<?xml version="1.0" standalone="no"?><!DOCTYPE svg PUBLIC "-//W3C//DTD SVG 1.1//EN" "http://www.w3.org/Graphics/SVG/1.1/DTD/svg11.dtd"><svg t="1704424700676" class="icon" viewBox="0 0 1024 1024" version="1.1" xmlns="http://www.w3.org/2000/svg" p-id="31023" xmlns:xlink="http://www.w3.org/1999/xlink" width="128" height="128"><path d="M788.48 1024H235.52C176 1024 128 976 128 916.48V107.52C128 48 176 0 235.52 0h552.96C848 0 896 48 896 107.52v808.96c0 59.52-48 107.52-107.52 107.52zM235.52 64C211.2 64 192 83.2 192 107.52v808.96c0 24.32 19.2 43.52 43.52 43.52h552.96c24.32 0 43.52-19.2 43.52-43.52V107.52c0-24.32-19.2-43.52-43.52-43.52H235.52z" fill="" p-id="31024"></path><path d="M544 832H471.68c-17.92 0-32-14.08-32-32s14.08-32 32-32H544c17.92 0 32 14.08 32 32s-14.08 32-32 32z" fill="" p-id="31025"></path></svg>