<?xml version="1.0" standalone="no"?><!DOCTYPE svg PUBLIC "-//W3C//DTD SVG 1.1//EN" "http://www.w3.org/Graphics/SVG/1.1/DTD/svg11.dtd"><svg t="1704426562853" class="icon" viewBox="0 0 1024 1024" version="1.1" xmlns="http://www.w3.org/2000/svg" p-id="94507" xmlns:xlink="http://www.w3.org/1999/xlink" width="128" height="128"><path d="M918.1 869.3L751.6 703.7c55.2-64.2 88.4-147.4 88.4-238.5 0-202.8-165.7-366.9-370.5-366.9C264 98.2 98.2 262.4 98.2 465.9c0 202.8 165.7 367.7 371.2 367.7 88.4 0 169.4-30.6 232.8-81.7l166.5 164.9c0.7 0.7 0.7 0.7 0.7 1.5 13.3 13.1 35.4 13.1 48.6 0 13.3-14 13.3-35.9 0.1-49z m-448.6-81.7c-179.7 0-324.8-143.7-324.8-321.7 0-177.3 145.1-321 324.8-321s324.8 143.7 324.8 321.7-145.8 321-324.8 321z" p-id="94508"></path></svg>