<?xml version="1.0" standalone="no"?><!DOCTYPE svg PUBLIC "-//W3C//DTD SVG 1.1//EN" "http://www.w3.org/Graphics/SVG/1.1/DTD/svg11.dtd"><svg t="1704426234090" class="icon" viewBox="0 0 1024 1024" version="1.1" xmlns="http://www.w3.org/2000/svg" p-id="54878" xmlns:xlink="http://www.w3.org/1999/xlink" width="128" height="128"><path d="M511.616 0a511.744 511.744 0 0 1 362.176 149.76A512.576 512.576 0 0 1 1024 512a48.448 48.448 0 1 1-96.896 0 415.808 415.808 0 0 0-256-384.64 415.232 415.232 0 0 0-452.992 89.6 416.064 416.064 0 0 0-90.432 453.312 415.488 415.488 0 0 0 383.936 256.832 48.448 48.448 0 0 1 0 96.896 511.552 511.552 0 0 1-443.072-256 512.384 512.384 0 0 1 0-512 511.552 511.552 0 0 1 443.072-256z m303.616 621.376c24.128 0 43.712 19.008 43.84 42.688v236.992c0 23.68-19.648 42.88-43.84 42.88a43.328 43.328 0 0 1-43.776-42.88v-237.056a43.328 43.328 0 0 1 43.776-42.624z m-161.728 118.464l6.784 0.576c8.96 1.408 17.408 5.568 23.872 11.968a42.112 42.112 0 0 1 12.736 30.144v118.528a43.136 43.136 0 0 1-43.584 42.688 43.136 43.136 0 0 1-43.648-42.688v-118.528a42.24 42.24 0 0 1 12.864-30.272 44.096 44.096 0 0 1 30.976-12.416z m323.52 39.488l6.848 0.512a43.904 43.904 0 0 1 24.064 11.904 42.24 42.24 0 0 1 12.928 30.272v79.04a43.136 43.136 0 0 1-43.648 42.688 43.136 43.136 0 0 1-43.584-42.688v-79.04c0-11.264 4.544-22.144 12.672-30.08a44.288 44.288 0 0 1 30.72-12.608zM511.616 213.76l6.144 0.448c20.288 2.624 36.48 18.816 38.912 39.68l0.448 5.184-3.2 207.552h126.656c22.912 0.064 42.112 17.28 44.672 40.128L725.76 512c0 22.976-17.216 42.24-40.128 44.992l-4.992 0.32h-168.96a45.824 45.824 0 0 1-45.12-40.384V259.2a44.8 44.8 0 0 1 13.312-32 44.288 44.288 0 0 1 31.808-13.376z" p-id="54879"></path></svg>