<?xml version="1.0" standalone="no"?><!DOCTYPE svg PUBLIC "-//W3C//DTD SVG 1.1//EN" "http://www.w3.org/Graphics/SVG/1.1/DTD/svg11.dtd"><svg t="1704426611911" class="icon" viewBox="0 0 1024 1024" version="1.1" xmlns="http://www.w3.org/2000/svg" p-id="95546" xmlns:xlink="http://www.w3.org/1999/xlink" width="128" height="128"><path d="M802.1 426.6h-3.6v-97.4c0-158-128.5-286.5-286.5-286.5-76.6 0-148.6 29.8-202.8 84s-84 126.1-84 202.5v97.4h-3.4c-51.8 0-93.9 42.1-93.9 93.9v366.9c0 51.8 42.1 93.9 93.9 93.9h580.3c51.8 0 93.9-42.1 93.9-93.9V520.5c0-51.8-42.1-93.9-93.9-93.9z m-491.5-97.4c0-53.7 20.9-104.2 59-142.2 38-38 88.6-59 142.4-59 110.9 0 201.2 90.2 201.2 201.2v97.4H310.6v-97.4z m500.1 558.2c0 4.7-3.8 8.5-8.5 8.5H221.9c-4.7 0-8.5-3.8-8.5-8.5V520.5c0-4.7 3.8-8.5 8.5-8.5h580.3c4.7 0 8.5 3.8 8.5 8.5v366.9z" p-id="95547"></path></svg>